<?xml version="1.0" encoding="UTF-8" standalone="no"?>
<svg
   xmlns:dc="http://purl.org/dc/elements/1.1/"
   xmlns:cc="http://creativecommons.org/ns#"
   xmlns:rdf="http://www.w3.org/1999/02/22-rdf-syntax-ns#"
   xmlns:svg="http://www.w3.org/2000/svg"
   xmlns="http://www.w3.org/2000/svg"
   xmlns:sodipodi="http://sodipodi.sourceforge.net/DTD/sodipodi-0.dtd"
   xmlns:inkscape="http://www.inkscape.org/namespaces/inkscape"
   id="Capa_1"
   enable-background="new 0 0 512 512"
   height="512"
   viewBox="0 0 771 512"
   width="771"
   version="1.1"
   sodipodi:docname="title.svg"
   inkscape:version="0.92.4 (5da689c313, 2019-01-14)"
   inkscape:export-filename="C:\Users\jonah\Downloads\student_seminars_2019-master\new_media\title4.png"
   inkscape:export-xdpi="70.082321"
   inkscape:export-ydpi="70.082321">
  <metadata
     id="metadata13">
    <rdf:RDF>
      <cc:Work
         rdf:about="">
        <dc:format>image/svg+xml</dc:format>
        <dc:type
           rdf:resource="http://purl.org/dc/dcmitype/StillImage" />
        <dc:title />
      </cc:Work>
    </rdf:RDF>
  </metadata>
  <defs
     id="defs11" />
  <sodipodi:namedview
     pagecolor="#ffffff"
     bordercolor="#666666"
     borderopacity="1"
     objecttolerance="10"
     gridtolerance="10"
     guidetolerance="10"
     inkscape:pageopacity="0"
     inkscape:pageshadow="2"
     inkscape:window-width="1920"
     inkscape:window-height="1017"
     id="namedview9"
     showgrid="false"
     inkscape:zoom="1.3037281"
     inkscape:cx="230.00973"
     inkscape:cy="251.15472"
     inkscape:window-x="-8"
     inkscape:window-y="-8"
     inkscape:window-maximized="1"
     inkscape:current-layer="Capa_1" />
  <rect
     style="opacity:0.3;fill:#ffffff;fill-opacity:1;stroke:none;stroke-width:6.25199986;stroke-linecap:round;stroke-linejoin:miter;stroke-miterlimit:4;stroke-dasharray:none;stroke-dashoffset:0;stroke-opacity:1"
     id="rect821"
     width="596.38434"
     height="253.31799"
     x="81.29982"
     y="72.776932" />
  <g
     id="g6"
     transform="matrix(1.3805193,0,0,1,26.079049,-1.5340622)">
    <path
       d="M 498.691,34.311 H 13.31 C 5.971,34.311 0,40.282 0,47.621 v 306.698 c 0,7.339 5.971,13.31 13.31,13.31 h 206.618 c 3.525,6.849 5.841,14.248 6.856,21.863 h -74.459 c -4.743,0 -9.062,2.41 -11.552,6.448 l -26.099,42.317 c -1.313,2.13 -2.019,4.599 -2.019,7.123 v 18.737 c 0,7.484 6.088,13.572 13.572,13.572 h 259.547 c 7.483,0 13.572,-6.088 13.572,-13.572 V 445.38 c 0,-2.535 -0.715,-5.012 -2.021,-7.125 l -26.098,-42.314 c -2.489,-4.038 -6.809,-6.449 -11.553,-6.449 h -74.459 c 1.015,-7.614 3.331,-15.013 6.856,-21.863 h 134.126 c 4.143,0 7.5,-3.358 7.5,-7.5 0,-4.142 -3.357,-7.5 -7.5,-7.5 H 15 V 49.311 h 482 v 303.318 h -35.802 c -4.143,0 -7.5,3.358 -7.5,7.5 0,4.142 3.357,7.5 7.5,7.5 h 37.492 c 7.339,0 13.31,-5.971 13.31,-13.31 V 47.62 c 0,-7.339 -5.971,-13.309 -13.309,-13.309 z M 378.408,436.158 H 209.624 c -4.142,0 -7.5,3.358 -7.5,7.5 0,4.142 3.358,7.5 7.5,7.5 h 174.722 v 11.531 H 127.654 v -11.531 h 46.969 c 4.142,0 7.5,-3.358 7.5,-7.5 0,-4.142 -3.358,-7.5 -7.5,-7.5 h -41.032 l 19.53,-31.666 h 74.251 v 10.239 c 0,4.891 3.293,9.215 8.007,10.516 13.545,3.737 27.803,3.707 41.239,0 4.715,-1.3 8.008,-5.625 8.008,-10.516 v -10.239 h 74.252 z M 275.593,367.629 c -3.925,9.732 -5.966,20.167 -5.966,30.732 v 13.175 c -8.974,2.004 -18.283,2.003 -27.254,0 v -13.175 c 0,-10.565 -2.041,-21.001 -5.965,-30.732 z"
       id="path2"
       inkscape:connector-curvature="0" />
    <path
       d="m 51.94,74.311 c 4.142,0 7.5,-3.358 7.5,-7.5 0,-4.142 -3.358,-7.5 -7.5,-7.5 H 33.536 C 28.829,59.311 25,63.14 25,67.847 v 266.246 c 0,4.707 3.829,8.536 8.536,8.536 h 444.928 c 4.707,0 8.536,-3.829 8.536,-8.536 V 67.847 c 0,-4.707 -3.829,-8.536 -8.536,-8.536 H 86.94 c -4.142,0 -7.5,3.358 -7.5,7.5 0,4.142 3.358,7.5 7.5,7.5 H 472 V 327.629 H 40 V 74.311 Z"
       id="path4"
       inkscape:connector-curvature="0" />
  </g>
  <text
     xml:space="preserve"
     style="font-style:normal;font-weight:normal;font-size:25.02996254px;line-height:1.25;font-family:sans-serif;letter-spacing:0px;word-spacing:0px;fill:#000000;fill-opacity:1;stroke:none;stroke-width:0.26817819;stroke-miterlimit:4;stroke-dasharray:none"
     x="385.96902"
     y="259.78662"
     id="text4525"
     transform="scale(0.9877667,1.0123848)"><tspan
       sodipodi:role="line"
       id="tspan4523"
       x="385.96902"
       y="259.78662"
       style="font-style:normal;font-variant:normal;font-weight:bold;font-stretch:normal;font-size:35.75709152px;line-height:1.25;font-family:'Eurostile Extended';-inkscape-font-specification:'Eurostile Extended';text-align:center;text-anchor:middle;fill:#000000;stroke-width:0.26817819;stroke-miterlimit:4;stroke-dasharray:none">Stromlo Student Seminars</tspan><tspan
       sodipodi:role="line"
       x="385.96902"
       y="304.48297"
       id="tspan4527"
       style="font-style:normal;font-variant:normal;font-weight:bold;font-stretch:normal;font-size:35.75709152px;line-height:1.25;font-family:'Eurostile Extended';-inkscape-font-specification:'Eurostile Extended';text-align:center;text-anchor:middle;fill:#000000;stroke-width:0.26817819;stroke-miterlimit:4;stroke-dasharray:none">2019</tspan></text>
  <g
     id="g4539"
     style="stroke-width:3;stroke-miterlimit:4;stroke-dasharray:none"
     transform="translate(141.13372,-28.38015)">
    <g
       id="g4543"
       transform="matrix(2.1090188,0,0,2.0595675,-17.163912,-394.1454)">
      <path
         sodipodi:type="spiral"
         style="fill:none;fill-rule:evenodd;stroke:#d45500;stroke-width:3;stroke-miterlimit:4;stroke-dasharray:none"
         id="path4529"
         sodipodi:cx="-114.06091"
         sodipodi:cy="-276.96469"
         sodipodi:expansion="1"
         sodipodi:revolution="3.53"
         sodipodi:radius="36.302334"
         sodipodi:argument="-17.476154"
         sodipodi:t0="0.49900001"
         d="m -96.088124,-279.22902 c 2.289912,10.46428 -5.109796,20.65874 -15.387086,22.78794 -11.85582,2.45624 -23.34891,-5.95074 -25.66014,-17.61654 -2.62446,-13.24685 6.79146,-26.04045 19.846,-28.53233 14.63752,-2.79404 28.733004,7.63203 31.404515,22.07545 2.964597,16.02797 -8.47248,31.42632 -24.304895,34.27671 -17.41825,3.13589 -34.12022,-9.31285 -37.14891,-26.53435 -3.30776,-18.80839 10.15315,-36.81458 28.76381,-40.0211 1.38618,-0.23883 2.7863,-0.39649 4.19085,-0.47235"
         transform="scale(-1)" />
      <path
         style="fill:none;stroke:#d45500;stroke-width:2.99978924;stroke-linecap:round;stroke-linejoin:miter;stroke-miterlimit:4;stroke-dasharray:none;stroke-opacity:1"
         d="m 96.020327,278.89004 c 1.815551,13.68718 30.186083,17.81265 30.156273,5.877 -0.0779,-8.69393 -20.66153,-2.91554 -20.40732,-13.9684 0.36669,-8.42367 19.4981,-4.82941 19.4981,-4.82941"
         id="path4535"
         inkscape:connector-curvature="0"
         sodipodi:nodetypes="cccc" />
    </g>
  </g>
</svg>
